<svg xmlns="http://www.w3.org/2000/svg" xmlns:xlink="http://www.w3.org/1999/xlink" width="60" height="60" viewBox="0 0 60 60">
  <defs>
    <linearGradient id="linear-gradient" x1="0.5" x2="0.5" y2="1" gradientUnits="objectBoundingBox">
      <stop offset="0" stop-color="#fedc96"/>
      <stop offset="1" stop-color="#fbce6f"/>
    </linearGradient>
    <clipPath id="clip-VIP01">
      <rect width="60" height="60"/>
    </clipPath>
  </defs>
  <g id="VIP01" clip-path="url(#clip-VIP01)">
    <g id="Group_66060" data-name="Group 66060" transform="translate(11894 12062)">
      <g id="noun-stamp-3772826" transform="translate(-11894 -12062)">
        <path id="Path_57841" data-name="Path 57841" d="M184.613,90.376a2.9,2.9,0,0,0-.376,1.8l.451,3.073a4.06,4.06,0,0,1-1.5,3.673l-2.48,1.724a2.92,2.92,0,0,0-.977,1.5l-.752,3a3.856,3.856,0,0,1-2.78,2.773l-3.005.75a2.929,2.929,0,0,0-1.5.975l-1.878,2.473a3.846,3.846,0,0,1-3.682,1.5l-3.081-.375a2.648,2.648,0,0,0-1.8.375l-2.63,1.574a3.9,3.9,0,0,1-3.906,0l-2.63-1.574a3.035,3.035,0,0,0-1.8-.375l-3.081.375a3.911,3.911,0,0,1-3.682-1.5l-1.8-2.4a2.528,2.528,0,0,0-1.5-.975l-3.005-.75a3.984,3.984,0,0,1-2.78-2.773l-.752-3a2.92,2.92,0,0,0-.977-1.5l-2.48-1.874a3.827,3.827,0,0,1-1.5-3.673l.451-3.073a3.01,3.01,0,0,0-.376-1.8l-1.578-2.624a4.143,4.143,0,0,1,0-3.972l1.578-2.624a2.784,2.784,0,0,0,.376-1.724l-.451-3.073a4.06,4.06,0,0,1,1.5-3.673l2.48-1.874a2.92,2.92,0,0,0,.977-1.5l.752-3a3.856,3.856,0,0,1,2.78-2.773l3.005-.75a2.929,2.929,0,0,0,1.5-.975l1.879-2.473a3.846,3.846,0,0,1,3.682-1.5l3.081.45a3.03,3.03,0,0,0,1.8-.375l2.63-1.574a3.806,3.806,0,0,1,3.982,0l2.63,1.574a2.92,2.92,0,0,0,1.8.375l3.081-.45a4.155,4.155,0,0,1,3.682,1.5l1.727,2.474a2.232,2.232,0,0,0,1.5.975l3.005.75a3.856,3.856,0,0,1,2.78,2.773l.752,3a2.92,2.92,0,0,0,.977,1.5l2.48,1.874a3.827,3.827,0,0,1,1.5,3.673l-.451,3.073a3.01,3.01,0,0,0,.376,1.8l1.578,2.624a4.143,4.143,0,0,1,0,3.972Z" transform="translate(-126.698 -55.71)" fill="url(#linear-gradient)"/>
      </g>
      <path id="Path_57856" data-name="Path 57856" d="M-1.263-8.4-4.195-1.389-7.058-8.4h-4.354l5.074,12h3.977l5.074-12Zm4.371,12H7.154v-12H3.108Zm11.777-12H9.108v12h4.046V.651h1.731c3.343,0,5.469-1.749,5.469-4.526S18.228-8.4,14.885-8.4Zm-.257,5.931H13.154V-5.28h1.474c1.114,0,1.646.531,1.646,1.406S15.742-2.469,14.628-2.469ZM1.394,8.743v3.051H3.451v8.949H7.5v-12Z" transform="translate(-11868.891 -12034.886)" fill="#333"/>
    </g>
  </g>
</svg>
