<svg xmlns="http://www.w3.org/2000/svg" xmlns:xlink="http://www.w3.org/1999/xlink" width="24" height="24" viewBox="0 0 24 24">
  <defs>
    <clipPath id="clip-path">
      <rect id="Rectangle_65864" data-name="Rectangle 65864" width="24" height="24" transform="translate(-11517 -15038)" fill="#fff" stroke="#707070" stroke-width="1"/>
    </clipPath>
    <clipPath id="clip-path-2">
      <rect id="Rectangle_65863" data-name="Rectangle 65863" width="22" height="22" fill="#fff"/>
    </clipPath>
    <clipPath id="clip-语言_白">
      <rect width="24" height="24"/>
    </clipPath>
  </defs>
  <g id="语言_白" clip-path="url(#clip-语言_白)">
    <g id="Mask_Group_1551" data-name="Mask Group 1551" transform="translate(11517 15038)" clip-path="url(#clip-path)">
      <g id="Group_67022" data-name="Group 67022" transform="translate(-11516 -15037)">
        <g id="Group_67021" data-name="Group 67021" clip-path="url(#clip-path-2)">
          <path id="Path_67569" data-name="Path 67569" d="M22,11A11.012,11.012,0,0,0,11.05,0h-.1a11,11,0,0,0,0,22h.1A11.012,11.012,0,0,0,22,11M11,20.6c-.891,0-2.031-1.817-2.625-4.974A.526.526,0,0,1,8.892,15h4.216a.526.526,0,0,1,.516.624C13.031,18.779,11.891,20.6,11,20.6m-2.424-7a.524.524,0,0,1-.524-.483C8,12.444,7.975,11.74,7.975,11S8,9.556,8.052,8.891a.524.524,0,0,1,.524-.483h4.848a.524.524,0,0,1,.524.483c.05.666.078,1.37.078,2.109s-.027,1.444-.078,2.109a.524.524,0,0,1-.524.483ZM1.4,11a9.582,9.582,0,0,1,.251-2.185.527.527,0,0,1,.512-.408H6.118a.525.525,0,0,1,.523.564c-.047.662-.07,1.341-.07,2.029s.024,1.367.07,2.029a.525.525,0,0,1-.523.564H2.168a.527.527,0,0,1-.512-.408A9.582,9.582,0,0,1,1.4,11M11,1.4c.891,0,2.031,1.817,2.625,4.974A.526.526,0,0,1,13.108,7H8.892a.526.526,0,0,1-.516-.624C8.969,3.221,10.109,1.4,11,1.4m4.882,7h3.949a.527.527,0,0,1,.512.408,9.625,9.625,0,0,1,0,4.37.527.527,0,0,1-.512.408H15.882a.525.525,0,0,1-.523-.564c.047-.662.07-1.341.07-2.029s-.024-1.367-.07-2.029a.525.525,0,0,1,.523-.564M18.859,7H15.6a.526.526,0,0,1-.518-.441A17.751,17.751,0,0,0,14.3,3.479q-.12-.332-.245-.625a.526.526,0,0,1,.689-.691A9.655,9.655,0,0,1,19.312,6.21.526.526,0,0,1,18.859,7M7.26,2.164a.526.526,0,0,1,.689.691q-.125.293-.245.625a17.756,17.756,0,0,0-.781,3.082A.526.526,0,0,1,6.4,7H3.141a.526.526,0,0,1-.453-.792A9.655,9.655,0,0,1,7.26,2.164M3.141,15H6.4a.526.526,0,0,1,.518.441A17.762,17.762,0,0,0,7.7,18.521q.12.332.245.625a.526.526,0,0,1-.689.691A9.655,9.655,0,0,1,2.688,15.79.526.526,0,0,1,3.141,15m11.6,4.838a.526.526,0,0,1-.689-.691q.125-.293.245-.625a17.752,17.752,0,0,0,.781-3.082A.526.526,0,0,1,15.6,15h3.263a.526.526,0,0,1,.453.792,9.655,9.655,0,0,1-4.572,4.046" fill="#fff"/>
        </g>
      </g>
    </g>
  </g>
</svg>
