<svg xmlns="http://www.w3.org/2000/svg" xmlns:xlink="http://www.w3.org/1999/xlink" width="32" height="32" viewBox="0 0 32 32">
  <defs>
    <linearGradient id="linear-gradient" x1="0.788" y1="0.89" x2="0.195" y2="0.122" gradientUnits="objectBoundingBox">
      <stop offset="0" stop-color="#ffbe26"/>
      <stop offset="1" stop-color="#ffdb88"/>
    </linearGradient>
    <clipPath id="clip-_365客服">
      <rect width="32" height="32"/>
    </clipPath>
  </defs>
  <g id="_365客服" data-name="365客服" clip-path="url(#clip-_365客服)">
    <g id="Group_5458" data-name="Group 5458" transform="translate(-68.14 -605)">
      <path id="Subtraction_52" data-name="Subtraction 52" d="M781.765,1022.87a16,16,0,1,1,11.313-4.685h0A15.891,15.891,0,0,1,781.765,1022.87Z" transform="translate(-697.624 -385.87)" fill="url(#linear-gradient)"/>
      <path id="Path_2870" data-name="Path 2870" d="M1062.776,51.747h-1.149a8.742,8.742,0,0,0-16.266,0h-.757a1.5,1.5,0,0,0-1.5,1.5v4.886a1.5,1.5,0,0,0,1.5,1.5h1.34a1.5,1.5,0,0,0,1.5-1.5V53.246a1.5,1.5,0,0,0-.964-1.4,7.673,7.673,0,0,1,14.106.167,1.5,1.5,0,0,0-.645,1.229v4.886a1.484,1.484,0,0,0,.186.709,7.735,7.735,0,0,1-4.8,3.584,1.893,1.893,0,1,0-.056,1.108,8.809,8.809,0,0,0,5.681-3.99,1.482,1.482,0,0,0,.489.088h1.34a1.5,1.5,0,0,0,1.5-1.5V53.246a1.5,1.5,0,0,0-1.5-1.5Zm-16.405,6.385a.429.429,0,0,1-.428.429h-1.34a.429.429,0,0,1-.429-.429V53.246a.429.429,0,0,1,.429-.429h1.34a.429.429,0,0,1,.428.429Zm7.125,5.578a.822.822,0,1,1,.821-.822.822.822,0,0,1-.821.822Zm9.706-5.578a.429.429,0,0,1-.428.429h-1.34a.429.429,0,0,1-.429-.429V53.246a.429.429,0,0,1,.429-.429h1.34a.429.429,0,0,1,.428.429Z" transform="translate(-969.276 565.572)" fill="#fff"/>
    </g>
  </g>
</svg>
