<svg xmlns="http://www.w3.org/2000/svg" xmlns:xlink="http://www.w3.org/1999/xlink" width="30" height="30" viewBox="0 0 30 30">
  <defs>
    <clipPath id="clip-logo_白">
      <rect width="30" height="30"/>
    </clipPath>
  </defs>
  <g id="logo_白" clip-path="url(#clip-logo_白)">
    <g id="SRE_搶單" transform="translate(-0.436 6.613)">
      <g id="Group_69510" data-name="Group 69510" transform="translate(0.435 0.033)">
        <path id="Path_71121" data-name="Path 71121" d="M.9,8.776a2.11,2.11,0,0,0-.126.305A5.18,5.18,0,0,0,.72,12.611a5.885,5.885,0,0,0,1.868,2.6,10.2,10.2,0,0,0,3.161,1.751,18.49,18.49,0,0,0,5.963,1.024,25.659,25.659,0,0,0,5.855-.584,24.387,24.387,0,0,0,6.457-2.335,16.089,16.089,0,0,0,4-2.945A9.077,9.077,0,0,0,30,9.189a5.292,5.292,0,0,0,.251-3.448,5.6,5.6,0,0,0-1.769-2.748,9.828,9.828,0,0,0-3.161-1.85,17.772,17.772,0,0,0-6.088-1.1,25.386,25.386,0,0,0-5.882.575c-.072.018-.1,0-.144-.054a.717.717,0,0,0-.593-.323.774.774,0,0,0-.512,1.383.768.768,0,0,0,.916.027.754.754,0,0,0,.3-.862c-.036-.1-.009-.117.081-.135A24.02,24.02,0,0,1,17.063.2a20.981,20.981,0,0,1,3.825.144,15.763,15.763,0,0,1,3.843.961,9.047,9.047,0,0,1,3.044,1.877,5.014,5.014,0,0,1,1.338,5.7,8.134,8.134,0,0,1-1.8,2.784,15.3,15.3,0,0,1-4.176,3.08,24.39,24.39,0,0,1-9.6,2.658,21.111,21.111,0,0,1-4.194-.09A16.83,16.83,0,0,1,5.7,16.481a9.567,9.567,0,0,1-3.251-1.868A5.26,5.26,0,0,1,.612,10.842,5.368,5.368,0,0,1,.935,8.866Z" transform="translate(-0.435 -0.033)" fill="#fff"/>
        <g id="Group_69509" data-name="Group 69509" transform="translate(0.347 2.013)">
          <path id="Path_71122" data-name="Path 71122" d="M102.095,29.263c.153.063.278.117.413.171a1.456,1.456,0,0,1,.943,1.239,14.642,14.642,0,0,1,.072,1.536c.009.144.018.3.027.44a.46.46,0,0,0,.081.242.14.14,0,0,0,.135.072c.063,0,.054-.063.072-.1.332-.916.665-1.841.988-2.766.62-1.733,1.239-3.457,1.859-5.19.027-.072.054-.108.144-.108h2.6c.09,0,.117.027.144.108q1.468,4.108,2.936,8.208c.036.1.027.126-.081.117H109.9c-.09,0-.117-.027-.135-.108-.081-.305-.18-.6-.26-.907-.018-.081-.054-.1-.135-.1h-2.532c-.1,0-.126.036-.144.117-.081.3-.171.593-.251.9-.018.072-.054.1-.135.1h-5.19c-.09,0-.117-.027-.135-.108a6.921,6.921,0,0,1-.108-1.293,7.429,7.429,0,0,0-.045-.772.81.81,0,0,0-.682-.7,2.986,2.986,0,0,0-.629-.063c-.269,0-.53,0-.8-.009-.117,0-.162.018-.153.153.009.889,0,1.769.009,2.658,0,.108-.018.135-.135.135-.835-.009-1.67-.009-2.514,0-.1,0-.126-.027-.126-.126V24.935c0-.108.027-.135.135-.135,1.347,0,2.694,0,4.041.009a7.009,7.009,0,0,1,1.976.242,1.971,1.971,0,0,1,1.563,1.994,2.61,2.61,0,0,1-.216,1.221,1.768,1.768,0,0,1-1.033.952A1.2,1.2,0,0,0,102.095,29.263Zm-3.556-1.652v.745c0,.072.018.09.09.09.386-.009.763,0,1.149-.009a2,2,0,0,0,.727-.126.647.647,0,0,0,.4-.431.8.8,0,0,0-.485-1,1.1,1.1,0,0,0-.377-.09c-.476-.036-.943-.009-1.419-.018-.072,0-.09.027-.09.09Zm10.444,2.757c-.3-1-.584-1.985-.88-2.972-.3.961-.566,1.922-.844,2.874-.027.081,0,.1.081.1h1.643Z" transform="translate(-87.583 -24.589)" fill="#fff"/>
          <path id="Path_71123" data-name="Path 71123" d="M4.453,29.265c.018.045.036.063.036.081A2.922,2.922,0,0,0,5.683,30.7a4.1,4.1,0,0,0,1.931.6,5.819,5.819,0,0,0,2.541-.332,2.564,2.564,0,0,0,1.814-2.236,2.135,2.135,0,0,0-1.1-2.227,4.9,4.9,0,0,0-1.14-.485c-.593-.18-1.2-.305-1.8-.485a1.838,1.838,0,0,1-.593-.26.478.478,0,0,1-.207-.467.41.41,0,0,1,.341-.341,1.8,1.8,0,0,1,1.149.045.68.68,0,0,1,.458.512c.018.09.054.1.135.1H11.61c.1,0,.126-.027.108-.126a2.725,2.725,0,0,0-1.383-2.047,3.924,3.924,0,0,0-1.769-.485,5.678,5.678,0,0,0-2.353.305,2.386,2.386,0,0,0-1.724,2.3,2.157,2.157,0,0,0,1,1.994,3.923,3.923,0,0,0,.934.458c.593.2,1.212.323,1.814.485A3.856,3.856,0,0,1,9,28.277a.541.541,0,0,1,.332.413.487.487,0,0,1-.305.521,1.84,1.84,0,0,1-1.158.135,1.052,1.052,0,0,1-.907-.79c-.018-.054-.045-.054-.09-.054H4.381c-.072,0-.081.027-.081.09a4.847,4.847,0,0,0,.09.521c.009.027.009.054.018.081Z" transform="translate(-4.3 -22.454)" fill="#fff"/>
        </g>
      </g>
      <g id="Group_69511" data-name="Group 69511" transform="translate(1.824 11.282)">
        <path id="Path_71124" data-name="Path 71124" d="M16.708,125.749a.13.13,0,0,0-.063-.1.249.249,0,0,0-.117-.027c-.1,0-.144.027-.144.081,0,.036.018.063.063.09a1.165,1.165,0,0,0,.207.063c.081.018.153.045.207.054a1.272,1.272,0,0,1,.162.072.42.42,0,0,1,.126.126.327.327,0,0,1,.045.189.435.435,0,0,1-.18.368.841.841,0,0,1-.485.126.775.775,0,0,1-.251-.036.593.593,0,0,1-.2-.108.5.5,0,0,1-.126-.153.6.6,0,0,1-.054-.18h.449a.158.158,0,0,0,.081.117.216.216,0,0,0,.135.036.315.315,0,0,0,.144-.027.086.086,0,0,0,.054-.081.083.083,0,0,0-.063-.081,1.165,1.165,0,0,0-.207-.063c-.081-.018-.153-.036-.207-.054a1.272,1.272,0,0,1-.162-.072.36.36,0,0,1-.126-.135.34.34,0,0,1-.045-.2.391.391,0,0,1,.171-.341.759.759,0,0,1,.449-.117.708.708,0,0,1,.251.036.492.492,0,0,1,.18.1.586.586,0,0,1,.117.144.6.6,0,0,1,.054.18h-.467Z" transform="translate(-15.9 -125.3)" fill="#fff"/>
        <path id="Path_71125" data-name="Path 71125" d="M31.272,130.669l-.018-.108a.45.45,0,0,1-.171.108.772.772,0,0,1-.216.036.393.393,0,0,1-.26-.081.278.278,0,0,1-.108-.233.344.344,0,0,1,.045-.171.212.212,0,0,1,.117-.1.937.937,0,0,1,.144-.054c.054-.009.108-.018.189-.027a.628.628,0,0,0,.189-.036.068.068,0,0,0,.054-.072.06.06,0,0,0-.045-.063.319.319,0,0,0-.09-.018.323.323,0,0,0-.1.018.094.094,0,0,0-.045.081h-.4a.294.294,0,0,1,.135-.26.771.771,0,0,1,.431-.09,1.247,1.247,0,0,1,.287.027.276.276,0,0,1,.153.09.239.239,0,0,1,.063.126.926.926,0,0,1,.018.18v.485a.154.154,0,0,0,.009.072.12.12,0,0,0,.045.054v.018h-.431Zm-.081-.26a.267.267,0,0,0,.045-.162v-.036a.925.925,0,0,1-.144.045.285.285,0,0,0-.126.045.088.088,0,0,0-.036.081.068.068,0,0,0,.036.063.161.161,0,0,0,.1.027A.211.211,0,0,0,31.191,130.408Z" transform="translate(-29.189 -129.214)" fill="#fff"/>
        <path id="Path_71126" data-name="Path 71126" d="M44.8,127.119V125.7h.413v1.419Z" transform="translate(-42.205 -125.664)" fill="#fff"/>
        <path id="Path_71127" data-name="Path 71127" d="M50.813,130.156a.167.167,0,0,0,.063.144.2.2,0,0,0,.144.054.152.152,0,0,0,.09-.027.167.167,0,0,0,.063-.072h.4a.456.456,0,0,1-.081.162.4.4,0,0,1-.135.108.542.542,0,0,1-.171.054,1.341,1.341,0,0,1-.189.018.67.67,0,0,1-.233-.036.646.646,0,0,1-.189-.108.4.4,0,0,1-.126-.171.559.559,0,0,1,.126-.629.513.513,0,0,1,.189-.117.638.638,0,0,1,.233-.036.737.737,0,0,1,.251.045.407.407,0,0,1,.189.135.668.668,0,0,1,.126.207.791.791,0,0,1,.045.26h-.79Zm.368-.207a.184.184,0,0,0-.18-.18.228.228,0,0,0-.144.045.169.169,0,0,0-.054.135Z" transform="translate(-47.302 -129.123)" fill="#fff"/>
        <path id="Path_71128" data-name="Path 71128" d="M64.486,130.527a.129.129,0,0,0,.045.1.188.188,0,0,0,.1.036.225.225,0,0,0,.09-.018.073.073,0,0,0,.036-.072.066.066,0,0,0-.054-.063.953.953,0,0,0-.162-.045c-.063-.009-.117-.027-.162-.036a.315.315,0,0,1-.126-.054.471.471,0,0,1-.1-.09.245.245,0,0,1-.036-.144.31.31,0,0,1,.045-.162.336.336,0,0,1,.117-.108.429.429,0,0,1,.162-.054.862.862,0,0,1,.35,0,1.085,1.085,0,0,1,.162.045.313.313,0,0,1,.117.1.251.251,0,0,1,.054.162h-.377a.093.093,0,0,0-.036-.072.11.11,0,0,0-.081-.027.265.265,0,0,0-.09.018.054.054,0,0,0-.027.054.057.057,0,0,0,.045.054c.036.009.09.027.162.045s.126.027.171.045a.843.843,0,0,1,.135.054.285.285,0,0,1,.108.1.245.245,0,0,1,.036.144.293.293,0,0,1-.144.26.737.737,0,0,1-.413.1,1.106,1.106,0,0,1-.18-.018.571.571,0,0,1-.162-.054.336.336,0,0,1-.117-.108.424.424,0,0,1-.054-.171h.386Z" transform="translate(-59.772 -129.396)" fill="#fff"/>
        <path id="Path_71129" data-name="Path 71129" d="M76.3,134.259V133.9h.53v.359Z" transform="translate(-70.876 -133.128)" fill="#fff"/>
        <path id="Path_71130" data-name="Path 71130" d="M83.667,126.625v.494H83.2V125.7h.674a.888.888,0,0,1,.485.1.359.359,0,0,1,.144.305.368.368,0,0,1-.063.225.268.268,0,0,1-.18.126c.045.018.081.036.108.045s.045.036.072.054a.332.332,0,0,1,.045.1.826.826,0,0,1,.018.171,1.1,1.1,0,0,0,.009.207c.009.027.018.045.045.045v.045H84.08a.506.506,0,0,1-.018-.09.823.823,0,0,1-.009-.153.4.4,0,0,0-.009-.117.18.18,0,0,0-.036-.072.2.2,0,0,0-.072-.045.555.555,0,0,0-.135-.009h-.135Zm0-.314h.18a.3.3,0,0,0,.171-.036.1.1,0,0,0,.054-.1.118.118,0,0,0-.054-.108.216.216,0,0,0-.135-.036h-.216Z" transform="translate(-77.156 -125.664)" fill="#fff"/>
        <path id="Path_71131" data-name="Path 71131" d="M99.272,130.669l-.018-.108a.45.45,0,0,1-.171.108.773.773,0,0,1-.216.036.393.393,0,0,1-.26-.081.278.278,0,0,1-.108-.233.344.344,0,0,1,.045-.171.212.212,0,0,1,.117-.1.937.937,0,0,1,.144-.054c.054-.009.108-.018.189-.027a.627.627,0,0,0,.189-.036.068.068,0,0,0,.054-.072.06.06,0,0,0-.045-.063.319.319,0,0,0-.09-.018.323.323,0,0,0-.1.018.094.094,0,0,0-.045.081h-.4a.294.294,0,0,1,.135-.26.771.771,0,0,1,.431-.09,1.247,1.247,0,0,1,.287.027.276.276,0,0,1,.153.09.239.239,0,0,1,.063.126.927.927,0,0,1,.018.18v.485a.154.154,0,0,0,.009.072.12.12,0,0,0,.045.054v.018h-.431Zm-.09-.26a.266.266,0,0,0,.045-.162v-.036a.925.925,0,0,1-.144.045.285.285,0,0,0-.126.045.088.088,0,0,0-.036.081.068.068,0,0,0,.036.063.161.161,0,0,0,.1.027A.188.188,0,0,0,99.182,130.408Z" transform="translate(-91.083 -129.214)" fill="#fff"/>
        <path id="Path_71132" data-name="Path 71132" d="M112.409,129.727h.377v.162a.458.458,0,0,1,.153-.144.34.34,0,0,1,.2-.045.38.38,0,0,1,.305.117.506.506,0,0,1,.1.332v.62h-.413v-.548a.228.228,0,0,0-.036-.144.123.123,0,0,0-.117-.054.14.14,0,0,0-.126.054.27.27,0,0,0-.036.162v.53H112.4v-1.042Z" transform="translate(-103.734 -129.305)" fill="#fff"/>
        <path id="Path_71133" data-name="Path 71133" d="M126.613,126.831v.287H126.2V125.7h.413v.7l.26-.314h.476l-.386.4.431.638H126.9l-.224-.368Z" transform="translate(-116.295 -125.664)" fill="#fff"/>
        <path id="Path_71134" data-name="Path 71134" d="M140,125.3h.413v.3H140Zm0,1.455v-1.033h.413v1.033Z" transform="translate(-128.856 -125.3)" fill="#fff"/>
        <path id="Path_71135" data-name="Path 71135" d="M145.809,129.727h.377v.162a.458.458,0,0,1,.153-.144.34.34,0,0,1,.2-.045.38.38,0,0,1,.305.117.506.506,0,0,1,.1.332v.62h-.413v-.548a.228.228,0,0,0-.036-.144.123.123,0,0,0-.117-.054.14.14,0,0,0-.126.054.27.27,0,0,0-.036.162v.53H145.8v-1.042Z" transform="translate(-134.135 -129.305)" fill="#fff"/>
        <path id="Path_71136" data-name="Path 71136" d="M159.567,130.814c0,.018.009.027.027.045a.134.134,0,0,0,.09.027.163.163,0,0,0,.126-.045.224.224,0,0,0,.036-.153v-.081a.3.3,0,0,1-.126.081.486.486,0,0,1-.171.027.416.416,0,0,1-.189-.036.432.432,0,0,1-.144-.108.525.525,0,0,1-.09-.153.684.684,0,0,1-.027-.189.748.748,0,0,1,.027-.2.6.6,0,0,1,.081-.171.308.308,0,0,1,.144-.117.511.511,0,0,1,.216-.045.442.442,0,0,1,.18.045.36.36,0,0,1,.135.126v-.144h.359v.835a1.648,1.648,0,0,1-.018.233.409.409,0,0,1-.072.171.377.377,0,0,1-.162.117.856.856,0,0,1-.3.045.927.927,0,0,1-.233-.027.552.552,0,0,1-.162-.063.26.26,0,0,1-.1-.1.265.265,0,0,1-.045-.117h.413Zm-.018-.763a.321.321,0,0,0-.036.171.271.271,0,0,0,.045.144.154.154,0,0,0,.117.063.151.151,0,0,0,.135-.063.278.278,0,0,0,.045-.153.31.31,0,0,0-.045-.162.142.142,0,0,0-.135-.063A.157.157,0,0,0,159.549,130.05Z" transform="translate(-146.241 -129.305)" fill="#fff"/>
        <path id="Path_71137" data-name="Path 71137" d="M178.4,127.119l.512-1.419h.476l.512,1.419h-.467l-.054-.189h-.467l-.054.189Zm.745-1-.144.512h.3Z" transform="translate(-163.808 -125.664)" fill="#fff"/>
        <path id="Path_71138" data-name="Path 71138" d="M195.477,130.527a.129.129,0,0,0,.045.1.188.188,0,0,0,.1.036.225.225,0,0,0,.09-.018.073.073,0,0,0,.036-.072.066.066,0,0,0-.054-.063.953.953,0,0,0-.162-.045c-.063-.009-.117-.027-.162-.036a.314.314,0,0,1-.126-.054.471.471,0,0,1-.1-.09.245.245,0,0,1-.036-.144.31.31,0,0,1,.045-.162.336.336,0,0,1,.117-.108.429.429,0,0,1,.162-.054.862.862,0,0,1,.35,0,1.085,1.085,0,0,1,.162.045.313.313,0,0,1,.117.1.251.251,0,0,1,.054.162h-.377a.093.093,0,0,0-.036-.072.11.11,0,0,0-.081-.027.265.265,0,0,0-.09.018.054.054,0,0,0-.027.054q0,.04.054.054c.036.009.09.027.162.045s.126.027.171.045a.844.844,0,0,1,.135.054.286.286,0,0,1,.108.1.245.245,0,0,1,.036.144.293.293,0,0,1-.144.26.737.737,0,0,1-.413.1,1.106,1.106,0,0,1-.18-.018.571.571,0,0,1-.162-.054.336.336,0,0,1-.117-.108.425.425,0,0,1-.054-.171h.377Z" transform="translate(-179.008 -129.396)" fill="#fff"/>
        <path id="Path_71139" data-name="Path 71139" d="M207.777,130.527a.129.129,0,0,0,.045.1.188.188,0,0,0,.1.036.225.225,0,0,0,.09-.018.073.073,0,0,0,.036-.072.066.066,0,0,0-.054-.063.952.952,0,0,0-.162-.045c-.063-.009-.117-.027-.162-.036a.315.315,0,0,1-.126-.054.472.472,0,0,1-.1-.09.245.245,0,0,1-.036-.144.31.31,0,0,1,.045-.162.337.337,0,0,1,.117-.108.429.429,0,0,1,.162-.054.862.862,0,0,1,.35,0,1.085,1.085,0,0,1,.162.045.313.313,0,0,1,.117.1.251.251,0,0,1,.054.162h-.377a.093.093,0,0,0-.036-.072.11.11,0,0,0-.081-.027.265.265,0,0,0-.09.018.054.054,0,0,0-.027.054q0,.04.054.054c.036.009.09.027.162.045s.126.027.171.045a.844.844,0,0,1,.135.054.286.286,0,0,1,.108.1.245.245,0,0,1,.036.144.293.293,0,0,1-.144.26.737.737,0,0,1-.413.1,1.106,1.106,0,0,1-.18-.018.571.571,0,0,1-.162-.054.336.336,0,0,1-.117-.108.425.425,0,0,1-.054-.171h.377Z" transform="translate(-190.203 -129.396)" fill="#fff"/>
        <path id="Path_71140" data-name="Path 71140" d="M220.3,125.3h.413v.3H220.3Zm0,1.455v-1.033h.413v1.033Z" transform="translate(-201.945 -125.3)" fill="#fff"/>
        <path id="Path_71141" data-name="Path 71141" d="M226.377,130.527a.129.129,0,0,0,.045.1.188.188,0,0,0,.1.036.225.225,0,0,0,.09-.018.073.073,0,0,0,.036-.072.066.066,0,0,0-.054-.063.954.954,0,0,0-.162-.045c-.063-.009-.117-.027-.162-.036a.315.315,0,0,1-.126-.054.471.471,0,0,1-.1-.09.245.245,0,0,1-.036-.144.31.31,0,0,1,.045-.162.336.336,0,0,1,.117-.108.429.429,0,0,1,.162-.054.862.862,0,0,1,.35,0,1.084,1.084,0,0,1,.162.045.313.313,0,0,1,.117.1.251.251,0,0,1,.054.162h-.377a.093.093,0,0,0-.036-.072.11.11,0,0,0-.081-.027.265.265,0,0,0-.09.018.054.054,0,0,0-.027.054q0,.04.054.054c.036.009.09.027.162.045s.126.027.171.045a.843.843,0,0,1,.135.054.285.285,0,0,1,.108.1.245.245,0,0,1,.036.144.293.293,0,0,1-.144.26.737.737,0,0,1-.413.1,1.106,1.106,0,0,1-.18-.018.571.571,0,0,1-.162-.054.336.336,0,0,1-.117-.108.424.424,0,0,1-.054-.171h.377Z" transform="translate(-207.133 -129.396)" fill="#fff"/>
        <path id="Path_71142" data-name="Path 71142" d="M238.545,127.756c-.1.009-.18.009-.233.009a1.058,1.058,0,0,1-.2-.018.191.191,0,0,1-.162-.162,1.09,1.09,0,0,1-.009-.189v-.431H237.8v-.242h.153V126.4h.4v.323h.2v.233h-.2v.377a.13.13,0,0,0,.027.1.156.156,0,0,0,.108.027h.063v.3Z" transform="translate(-217.873 -126.301)" fill="#fff"/>
        <path id="Path_71143" data-name="Path 71143" d="M247.472,130.669l-.018-.108a.45.45,0,0,1-.171.108.772.772,0,0,1-.215.036.393.393,0,0,1-.26-.081.278.278,0,0,1-.108-.233.344.344,0,0,1,.045-.171.213.213,0,0,1,.117-.1.937.937,0,0,1,.144-.054c.054-.009.108-.018.189-.027a.627.627,0,0,0,.189-.036.068.068,0,0,0,.054-.072.06.06,0,0,0-.045-.063.319.319,0,0,0-.09-.018.323.323,0,0,0-.1.018.094.094,0,0,0-.045.081h-.4a.294.294,0,0,1,.135-.26.771.771,0,0,1,.431-.09,1.246,1.246,0,0,1,.287.027.276.276,0,0,1,.153.09.239.239,0,0,1,.063.126.926.926,0,0,1,.018.18v.485a.154.154,0,0,0,.009.072.12.12,0,0,0,.045.054v.018h-.431Zm-.081-.26a.266.266,0,0,0,.045-.162v-.036a.924.924,0,0,1-.144.045.284.284,0,0,0-.126.045.088.088,0,0,0-.036.081.068.068,0,0,0,.036.063.161.161,0,0,0,.1.027A.188.188,0,0,0,247.391,130.408Z" transform="translate(-225.974 -129.214)" fill="#fff"/>
        <path id="Path_71144" data-name="Path 71144" d="M260.709,129.727h.377v.162a.457.457,0,0,1,.153-.144.34.34,0,0,1,.2-.045.38.38,0,0,1,.305.117.506.506,0,0,1,.1.332v.62h-.413v-.548a.228.228,0,0,0-.036-.144.124.124,0,0,0-.117-.054.14.14,0,0,0-.126.054.27.27,0,0,0-.036.162v.53H260.7v-1.042Z" transform="translate(-238.717 -129.305)" fill="#fff"/>
        <path id="Path_71145" data-name="Path 71145" d="M274.345,127.756c-.1.009-.18.009-.233.009a1.058,1.058,0,0,1-.2-.018.191.191,0,0,1-.162-.162,1.093,1.093,0,0,1-.009-.189v-.431H273.6v-.242h.153V126.4h.4v.323h.2v.233h-.2v.377a.13.13,0,0,0,.027.1.156.156,0,0,0,.108.027h.063v.3Z" transform="translate(-250.459 -126.301)" fill="#fff"/>
      </g>
    </g>
  </g>
</svg>
