<svg xmlns="http://www.w3.org/2000/svg" xmlns:xlink="http://www.w3.org/1999/xlink" width="42" height="42" viewBox="0 0 42 42">
  <defs>
    <linearGradient id="linear-gradient" x1="0.5" x2="0.5" y2="1" gradientUnits="objectBoundingBox">
      <stop offset="0" stop-color="#44efd8"/>
      <stop offset="1" stop-color="#003fee"/>
    </linearGradient>
    <clipPath id="clip-path">
      <circle id="Ellipse_6322" data-name="Ellipse 6322" cx="18" cy="18" r="18" transform="translate(33 827)" fill="#fff" stroke="#707070" stroke-width="1"/>
    </clipPath>
    <clipPath id="clip-理财功能">
      <rect width="42" height="42"/>
    </clipPath>
  </defs>
  <g id="理财功能" clip-path="url(#clip-理财功能)">
    <g id="Group_69520" data-name="Group 69520" transform="translate(-183.802 -484.802)">
      <circle id="Ellipse_6321" data-name="Ellipse 6321" cx="21" cy="21" r="21" transform="translate(183.802 484.802)" fill="url(#linear-gradient)"/>
      <g id="Mask_Group_1666" data-name="Mask Group 1666" transform="translate(153.802 -339.198)" clip-path="url(#clip-path)">
        <g id="Group_69519" data-name="Group 69519" transform="translate(-102.531 819.06)">
          <path id="Path_70990" data-name="Path 70990" d="M150.159,219.8l-2.225,5.584-.485-4.046h.324a.362.362,0,0,0,.364-.364v-1.092a.362.362,0,0,0-.364-.364h-1.78a.362.362,0,0,0-.364.364v1.092a.362.362,0,0,0,.364.364h.324l-.485,4.046L143.6,219.8a5.61,5.61,0,0,0-4.289,4.774l-.566,4.572a1.17,1.17,0,0,0,.89,1.295c.85.162,1.7.324,2.549.445l.607,10.722a1.564,1.564,0,0,0,1.578,1.5h4.855a1.564,1.564,0,0,0,1.578-1.5l.607-10.722a25.749,25.749,0,0,0,2.549-.445,1.169,1.169,0,0,0,.89-1.295l-.445-4.531a5.664,5.664,0,0,0-4.248-4.815Z" transform="translate(0 -190.673)" fill="#fff"/>
          <path id="Path_70991" data-name="Path 70991" d="M192.511,74.418a4.977,4.977,0,1,1-4.977-4.977,4.977,4.977,0,0,1,4.977,4.977" transform="translate(-40.653 -51.436)" fill="#fff"/>
          <path id="Path_70992" data-name="Path 70992" d="M360.326,14a7.516,7.516,0,0,0-6.231,11.733l-.566,3.237a.78.78,0,0,0,.243.728.852.852,0,0,0,.526.2.514.514,0,0,0,.243-.04l3.641-1.133a7.928,7.928,0,0,0,2.185.324,7.537,7.537,0,0,0,7.526-7.526A7.625,7.625,0,0,0,360.326,14Zm0,13.473a6.051,6.051,0,0,1-1.9-.324.988.988,0,0,0-.485,0l-2.63.809.4-2.266a.677.677,0,0,0-.162-.607,5.844,5.844,0,0,1-1.173-3.52,5.947,5.947,0,1,1,5.947,5.907Z" transform="translate(-198.595)" fill="#fff"/>
          <path id="Path_70993" data-name="Path 70993" d="M426.942,61.845h-.607a.626.626,0,0,1-.607-.688.62.62,0,0,1,.647-.526h.688a.389.389,0,0,1,.364.283.308.308,0,0,0,.324.243h.809a.288.288,0,0,0,.243-.121.3.3,0,0,0,.081-.243,1.846,1.846,0,0,0-1.538-1.618v-.607a.319.319,0,0,0-.324-.324h-.769a.319.319,0,0,0-.324.324v.647a2.048,2.048,0,0,0-1.618,2.225,2.117,2.117,0,0,0,2.144,1.861h.526a.626.626,0,0,1,.607.688.62.62,0,0,1-.647.526h-.728a.389.389,0,0,1-.364-.283.308.308,0,0,0-.324-.243h-.809a.288.288,0,0,0-.243.121.3.3,0,0,0-.081.243,1.846,1.846,0,0,0,1.538,1.618v.607a.319.319,0,0,0,.324.324h.769a.319.319,0,0,0,.324-.324v-.647a2.059,2.059,0,0,0,1.618-1.78,2.037,2.037,0,0,0-.526-1.578,1.858,1.858,0,0,0-1.5-.728Z" transform="translate(-264.928 -41.048)" fill="#fff"/>
        </g>
      </g>
    </g>
  </g>
</svg>
